# xmcd
#
# Track frame offsets:
#	150
#	32715
#	59638
#	78007
#	103775
#
# Disc length: 1824 seconds
#
# Revision: 0
# Processed by: cddbd v1.5.2PL0 Copyright (c) Steve Scherf et al.
# Submitted via: EasyCDDAExtractor 16.0.8.1
#
DISCID=38071e05
DTITLE=The Devil Rides Out - Ugly Creature
DYEAR=1900
DGENRE=
TTITLE0=Ugly Creature
TTITLE1=Empty Sky
TTITLE2=Burn Again 
TTITLE3=The Righteous Walk
TTITLE4=Blood River
EXTD=
EXTT0=
EXTT1=
EXTT2=
EXTT3=
EXTT4=
PLAYORDER=
